<svg xmlns="http://www.w3.org/2000/svg" viewBox="0 0 209.23 270.5"><defs><style>.cls-1{fill:#ce1b75;}.cls-2,.cls-3{fill:#416fab;}.cls-3{font-size:27px;font-family:Impact;}</style></defs><title>Ativo 2</title><g id="Camada_2" data-name="Camada 2"><g id="Object"><path class="cls-1" d="M145.54,74.31l-12.35,0H132l0-9c0-1.51,0-3,0-4.51a.93.93,0,0,0-.92-.93l-7.67,0a.94.94,0,0,0-.93.92q0,6.18,0,12.35v1.16l-9,0-4.51,0a.93.93,0,0,0-.93.93l0,7.67a.86.86,0,0,0,.26.65.85.85,0,0,0,.66.28l12.35,0h1.16l0,9c0,1.5,0,3,0,4.51a.94.94,0,0,0,.93.93l7.67,0a.87.87,0,0,0,.65-.27.83.83,0,0,0,.28-.66q0-6.17,0-12.34c0-.39,0-.78,0-1.16l9,0,4.51,0a1,1,0,0,0,.93-.93l0-7.67A1,1,0,0,0,145.54,74.31Z"/><path class="cls-2" d="M161.08,59.8c0-3.25.4-6.79,0-10-.6-4.93-9.35-7.41-13.13-9.05a137.23,137.23,0,0,0-36.42-10.34,5.93,5.93,0,0,0,.1-.63.76.76,0,0,0,0-.21.48.48,0,0,0,0-.18c-.36-4-3.92-6.29-8-6.89a70.36,70.36,0,0,1,.12-12.33c1.19-8.37,16.52-6.74,15.36,2.16-.38,3,4.29,2.93,4.67,0,1.47-11.4-14.89-16.22-22-8.67C99.63,6,99.12,9,99.11,12.07c0,3.47,0,7,0,10.42-4.16.65-7.76,3.06-7.87,7.17A86.92,86.92,0,0,0,68.6,34.08,85.77,85.77,0,0,0,45.49,46.24a3.79,3.79,0,0,0-.37.31,3.66,3.66,0,0,0-1.64,3.2v97c0,14.27-.53,28.66,0,42.93,0,.37,0,.75,0,1.12a.19.19,0,0,0,0,.08,16,16,0,0,0,.15,5.47c1.83,8.2,9.6,13.17,16.89,16.07,9.53,3.78,20.12,5.49,30.73,5.9a8.48,8.48,0,0,0,1.23,5.4c2.65,4.18,8.21,3.8,12.48,3.8,5-.29,7.8-5.38,6.87-9.86,1.21-.12,2.41-.24,3.59-.38,13.33-1.51,29.3-4,40.47-12.09,4.25-3.09,5.19-6,5.19-10.79V176.12Q161.08,118,161.08,59.8Zm-8.86,138c-2.9,2.74-7.33,4.31-11,5.62-13.16,4.67-27.37,6.58-41.3,6.71-13.2.12-28.75-.6-40.6-7.17a17.75,17.75,0,0,1-6.67-5.78,9.52,9.52,0,0,1-1.26-3.81,7.54,7.54,0,0,1,0-.82,2.52,2.52,0,0,0,.1-.46c.08-.87.13-1.64.15-2.51.06-3.72,0-7.46,0-11.18q0-22.08,0-44.15c0-27.45.57-54.95,0-82.39,29.77-20.44,70.6-17.21,101.35.25V187.78c0,2.95-.44,6.32,0,9.27C152.79,197.21,152.57,197.45,152.22,197.78Zm.74.23a1.1,1.1,0,0,1,0-.95l0,.27C153,197.5,152.88,197.86,153,198Zm0-1c.14-.31.34-.4,0,0Z"/><path class="cls-2" d="M67.89,66.22h44.79a1.85,1.85,0,0,0,0-3.7H67.89a1.85,1.85,0,0,0,0,3.7Z"/><path class="cls-2" d="M67.89,78.1h23a1.85,1.85,0,0,0,0-3.7h-23a1.85,1.85,0,1,0,0,3.7Z"/><path class="cls-2" d="M67.89,90.24h23a1.85,1.85,0,0,0,0-3.7h-23a1.85,1.85,0,0,0,0,3.7Z"/><path class="cls-1" d="M145.2,105.75c-4,2.86-8.43,5.3-13.39,5.79a26.45,26.45,0,0,1-11.43-1.77c-8.54-3-16.45-7.41-25.27-9.72-12.33-3.24-25.87-.93-34.65,8.84A6.56,6.56,0,0,0,58.94,111c-.68,2.1-.36,5-.52,7.23a.38.38,0,0,0,.19.37.39.39,0,0,0-.18.3q-.26,14.61-.52,29.23h0v13.63s0,0,0,.06,0,0,0,.06v5.86a.11.11,0,0,0,0,.05v11.33c0,1,0,2,0,3v0a9.84,9.84,0,0,0,.22,1.8c1.92,8.4,10.52,13.49,18.08,16,8.4,2.8,17.8,3.18,26.56,3.35A111.69,111.69,0,0,0,124,201.89c4.67-.8,9.64-1.83,13.94-3.93s7.83-5.75,8-10.72c.15-4.07,0-8.17,0-12.24,0,0,0,0,0,0v0c.48-1.68,0-4.16,0-5.64v-4.05h0q0-11.6,0-23.19l.51-9.18a.45.45,0,0,0,0-.11V106C146.47,105.38,145.55,105.5,145.2,105.75Zm-77.31,55h23a1.85,1.85,0,0,1,0,3.7h-23a1.85,1.85,0,0,1,0-3.7ZM66,149.15a1.87,1.87,0,0,1,1.85-1.85h23a1.85,1.85,0,1,1,0,3.7h-23A1.86,1.86,0,0,1,66,149.15Zm46.64,32.35H67.89a1.85,1.85,0,1,1,0-3.7h44.79a1.85,1.85,0,1,1,0,3.7Zm0-49H67.89a1.86,1.86,0,0,1,0-3.71h44.79a1.86,1.86,0,0,1,0,3.71Zm33.25,42.42Z"/><text class="cls-3" transform="translate(0 261.57) scale(1.06 1)">CENTRAL DE LEITOS</text><rect class="cls-2" x="1.66" y="264.55" width="206.22" height="3.24"/><rect class="cls-2" x="0.54" y="233.82" width="206.22" height="3.24"/></g></g></svg>